<svg width="313" height="54" xmlns="http://www.w3.org/2000/svg" xmlns:xlink="http://www.w3.org/1999/xlink" xml:space="preserve" overflow="hidden"><defs><clipPath id="clip0"><rect x="48" y="620" width="313" height="54"/></clipPath></defs><g clip-path="url(#clip0)" transform="translate(-48 -620)"><path d="M96.7688 620.217 80.2794 620.217C77.681 620.217 75.4824 622.316 75.4824 625.014L75.4824 641.603C75.4824 644.202 77.5811 646.4 80.2794 646.4L96.8688 646.4C99.4671 646.4 101.666 644.302 101.666 641.603L101.666 625.014C101.566 622.316 99.4671 620.217 96.7688 620.217Z" fill="#CFB7F5"/><path d="M88.5741 647.7 80.2794 647.7C77.681 647.7 75.4824 649.798 75.4824 652.496L75.4824 669.086C75.4824 671.684 77.5811 673.883 80.2794 673.883L88.5741 673.883C95.7695 673.883 101.566 668.087 101.566 660.891L101.566 660.891C101.566 653.596 95.7695 647.7 88.5741 647.7Z" fill="#CFB7F5"/><path d="M69.2864 620.217 60.9917 620.217C53.7963 620.217 48 626.013 48 633.209L48 633.209C48 640.404 53.7963 646.201 60.9917 646.201L69.2864 646.201C71.8847 646.201 74.0833 644.102 74.0833 641.404L74.0833 625.014C74.0833 622.316 71.9847 620.217 69.2864 620.217Z" fill="#CFB7F5"/><path d="M69.2864 647.7 52.7969 647.7C50.1986 647.7 48 649.798 48 652.496L48 669.086C48 671.684 50.0987 673.883 52.7969 673.883L69.3863 673.883C71.9847 673.883 74.1833 671.784 74.1833 669.086L74.1833 652.496C74.0833 649.898 71.9847 647.7 69.2864 647.7Z" fill="#CFB7F5"/><path d="M124.451 639.605C124.451 641.503 126.05 642.403 129.648 642.703 137.243 643.302 141.44 646.9 141.34 652.896 141.34 659.692 135.944 664.289 128.149 664.289 119.155 664.289 114.458 659.392 114.957 651.097L122.752 651.097C122.452 654.895 124.451 657.193 128.149 657.193 131.047 657.193 132.746 655.594 132.746 653.796 132.746 651.597 131.147 650.598 127.249 650.298 119.754 649.698 115.757 646.3 115.757 640.504 115.757 634.208 120.953 629.711 128.249 629.711 136.244 629.711 140.941 634.508 140.341 641.503L132.746 641.503C132.946 638.505 131.347 636.707 128.449 636.707 126.05 636.607 124.451 637.806 124.451 639.605Z" fill="#041c3b"/><path d="M150.634 644.402C152.133 641.404 154.832 640.304 157.13 640.304 162.927 640.304 165.725 644.102 165.725 648.199L165.725 663.489 158.23 663.489 158.23 650.698C158.23 648.499 157.13 647.1 154.832 647.1 152.133 647.1 150.634 648.799 150.634 651.197L150.634 663.489 143.139 663.489 143.139 629.511 150.634 629.511 150.634 644.402Z" fill="#041c3b"/><path d="M168.423 648.899C168.623 644.701 171.621 640.304 178.816 640.304 185.512 640.304 189.41 643.902 189.41 649.598L189.41 663.589 183.214 663.589 183.214 659.292C182.014 662.69 178.916 664.189 175.119 664.189 170.522 664.189 167.524 660.991 167.524 657.094 167.524 652.896 170.022 650.698 176.118 649.698L181.814 648.799 181.814 648.499C181.814 647.3 180.915 646.101 178.617 646.101 176.418 646.101 175.419 647.3 175.219 648.799L168.423 648.799ZM177.517 658.393C180.216 658.393 181.814 656.094 181.814 653.896L181.814 653.496 177.917 654.095C176.218 654.395 175.219 654.995 175.219 656.394 175.219 657.793 176.318 658.393 177.517 658.393Z" fill="#041c3b"/><path d="M205.999 664.189C203.101 664.189 200.503 662.99 199.503 660.691L199.503 672.084 192.008 672.084 192.008 641.004 198.204 641.004 198.204 645.701C199.403 642.003 202.901 640.304 205.999 640.304 211.695 640.304 216.592 644.901 216.592 652.297 216.592 659.692 211.795 664.189 205.999 664.189ZM204.4 657.393C206.599 657.393 208.997 655.994 208.997 652.197 208.997 648.399 206.699 647 204.4 647 201.402 647 199.503 649.099 199.503 652.197 199.503 655.295 201.402 657.393 204.4 657.393Z" fill="#041c3b"/><path d="M217.692 652.297C217.692 645.001 222.489 640.304 229.484 640.304 235.58 640.304 240.677 644.302 240.677 652.297 240.677 653.596 240.477 654.495 240.377 654.695L225.087 654.695C225.187 656.994 226.786 658.393 229.384 658.393 232.382 658.393 233.182 657.094 233.382 656.394L240.577 656.394C240.377 659.592 237.479 664.189 229.584 664.189 222.489 664.189 217.692 659.592 217.692 652.297ZM233.082 649.498C232.882 647.3 231.483 646.101 229.384 646.101 227.086 646.101 225.387 647.3 225.287 649.498L233.082 649.498Z" fill="#041c3b"/><path d="M249.771 647.2C249.771 648.199 250.671 648.699 252.769 648.899 259.065 649.398 261.963 651.797 261.963 656.194 261.963 661.191 257.866 664.289 251.57 664.289 245.774 664.289 241.077 661.391 241.476 655.095L248.072 655.095C247.872 657.493 249.171 659.092 251.57 659.092 253.269 659.092 254.468 658.293 254.468 656.894 254.468 655.794 253.669 654.995 251.57 654.795 245.074 654.195 242.376 651.997 242.376 647.7 242.376 642.803 247.273 640.304 251.87 640.304 257.766 640.304 261.464 643.202 261.064 647.999L254.668 647.999C254.668 646.5 253.769 645.501 252.17 645.501 250.471 645.501 249.771 646.3 249.771 647.2Z" fill="#041c3b"/><path d="M275.555 657.593C277.753 657.593 279.252 656.394 279.652 654.595L287.047 654.595C286.448 659.692 283.05 664.189 275.455 664.189 268.159 664.189 262.863 659.392 262.863 652.197 262.863 645.001 268.159 640.204 275.455 640.204 283.05 640.204 286.548 644.801 287.047 649.798L279.652 649.798C279.152 647.999 277.753 646.8 275.555 646.8 272.457 646.8 270.558 648.999 270.558 652.197 270.558 655.395 272.457 657.593 275.555 657.593Z" fill="#041c3b"/><path d="M288.746 648.899C288.946 644.701 291.944 640.304 299.14 640.304 305.835 640.304 309.733 643.902 309.733 649.598L309.733 663.589 303.537 663.589 303.537 659.292C302.337 662.69 299.239 664.189 295.442 664.189 290.845 664.189 287.847 660.991 287.847 657.094 287.847 652.896 290.345 650.698 296.441 649.698L302.138 648.799 302.138 648.499C302.138 647.3 301.238 646.101 298.94 646.101 296.741 646.101 295.742 647.3 295.542 648.799L288.746 648.799ZM297.84 658.393C300.539 658.393 302.138 656.094 302.138 653.896L302.138 653.496 298.24 654.095C296.541 654.395 295.542 654.995 295.542 656.394 295.542 657.793 296.641 658.393 297.84 658.393Z" fill="#041c3b"/><path d="M326.322 664.189C323.424 664.189 320.826 662.99 319.826 660.691L319.826 672.084 312.331 672.084 312.331 641.004 318.527 641.004 318.527 645.701C319.726 642.003 323.224 640.304 326.322 640.304 332.019 640.304 336.915 644.901 336.915 652.297 336.915 659.692 332.118 664.189 326.322 664.189ZM324.723 657.393C326.922 657.393 329.32 655.994 329.32 652.197 329.32 648.399 327.022 647 324.723 647 321.725 647 319.826 649.099 319.826 652.197 319.826 655.295 321.625 657.393 324.723 657.393Z" fill="#041c3b"/><path d="M338.015 652.297C338.015 645.001 342.812 640.304 349.807 640.304 355.903 640.304 361 644.302 361 652.297 361 653.596 360.8 654.495 360.7 654.695L345.41 654.695C345.51 656.994 347.109 658.393 349.707 658.393 352.705 658.393 353.505 657.094 353.705 656.394L360.9 656.394C360.7 659.592 357.802 664.189 349.907 664.189 342.812 664.189 338.015 659.592 338.015 652.297ZM353.405 649.498C353.205 647.3 351.806 646.101 349.707 646.101 347.409 646.101 345.71 647.3 345.61 649.498L353.405 649.498Z" fill="#041c3b"/></g></svg>